 
<svg width="60px" version="1.1" id="Capa_1" xmlns="http://www.w3.org/2000/svg" xmlns:xlink="http://www.w3.org/1999/xlink" x="0px" y="0px"
	 viewBox="0 0 350.988 350.988" style="enable-background:new 0 0 350.988 350.988;" xml:space="preserve">
<path fill="current" stroke="current" d="M348.26,269.198c-1.983-2.525-5.018-4-8.228-4H208.973V135.566c23.71-12.499,38.439-36.887,38.439-63.648
	C247.412,32.262,215.149,0,175.494,0c-39.655,0-71.918,32.262-71.918,71.918c0,26.761,14.729,51.149,38.439,63.648v129.632H10.957
	c-3.211,0-6.245,1.475-8.229,4c-1.982,2.525-2.697,5.821-1.937,8.941l15.821,64.866c1.144,4.686,5.341,7.983,10.164,7.983h297.434
	c4.823,0,9.021-3.297,10.164-7.983l15.821-64.866C350.957,275.02,350.242,271.724,348.26,269.198z"/>
<g>
</g>
<g>
</g>
<g>
</g>
<g>
</g>
<g>
</g>
<g>
</g>
<g>
</g>
<g>
</g>
<g>
</g>
<g>
</g>
<g>
</g>
<g>
</g>
<g>
</g>
<g>
</g>
<g>
</g>
</svg>
